<?xml version="1.0" encoding="utf-8"?>
<!-- Generator: Adobe Illustrator 17.0.0, SVG Export Plug-In . SVG Version: 6.00 Build 0)  -->
<!DOCTYPE svg PUBLIC "-//W3C//DTD SVG 1.1//EN" "http://www.w3.org/Graphics/SVG/1.1/DTD/svg11.dtd">
<svg version="1.1" id="Layer_1" xmlns="http://www.w3.org/2000/svg" xmlns:xlink="http://www.w3.org/1999/xlink" x="0px" y="0px"
	 width="322.285px" height="146.279px" viewBox="0 0 322.285 146.279" enable-background="new 0 0 322.285 146.279"
	 xml:space="preserve">
<g>
	<path fill="#FFFFFF" d="M30.8,87.194l21.12,53.76l-10.4,1.44l-4.88-13.6H16l-4.8,12.8H0.8l21.2-54.4H30.8z M26.16,101.434
		l-7.12,18.96h14.4L26.16,101.434z"/>
	<path fill="#FFFFFF" d="M71.52,87.194h17.04c6.292,0,11.453,1.428,15.48,4.28c4.026,2.854,6.04,7,6.04,12.439
		c0,3.254-0.84,6.108-2.52,8.561c-1.68,2.454-3.934,4.374-6.76,5.76l13.36,23.36h-11.04L91.6,120.953h-9.76v20.641H71.52V87.194z
		 M88.24,95.834h-6.4v16.64h6.56c3.252,0,5.853-0.652,7.8-1.96c1.946-1.307,2.92-3.347,2.92-6.12
		C99.12,98.688,95.492,95.834,88.24,95.834z"/>
</g>
<g>
	<path fill="#FFFFFF" d="M232.431,85.913c5.493,0,10.267,1.24,14.32,3.721c4.053,2.479,7.133,5.854,9.24,10.12
		c2.106,4.268,3.16,9.04,3.16,14.319c0,5.548-1.12,10.468-3.36,14.761s-5.374,7.653-9.4,10.079c-4.027,2.428-8.68,3.693-13.96,3.801
		c-5.493,0-10.254-1.24-14.279-3.721c-4.028-2.479-7.094-5.84-9.2-10.08c-2.107-4.239-3.16-9-3.16-14.279
		c0-5.493,1.106-10.4,3.32-14.721c2.212-4.319,5.346-7.706,9.399-10.159C222.563,87.301,227.203,86.022,232.431,85.913z
		 M216.591,114.554c0,3.787,0.641,7.16,1.92,10.12c1.28,2.96,3.106,5.254,5.48,6.88c2.372,1.627,5.16,2.439,8.359,2.439
		c2.986,0,5.693-0.732,8.12-2.199s4.347-3.707,5.761-6.721c1.412-3.013,2.119-6.68,2.119-11c0-3.732-0.64-7.066-1.92-10
		c-1.279-2.933-3.12-5.226-5.52-6.88c-2.4-1.652-5.174-2.479-8.32-2.479c-2.88,0-5.533,0.813-7.96,2.439
		c-2.428,1.628-4.374,3.947-5.84,6.96C217.323,107.127,216.591,110.608,216.591,114.554z"/>
	<path fill="#FFFFFF" d="M291.071,141.594h-10.32v-54.4h17.04c6.4,0,11.586,1.428,15.56,4.28c3.973,2.854,5.96,7.24,5.96,13.16
		c0,3.947-1.027,7.279-3.08,10c-2.054,2.72-4.76,4.733-8.119,6.04c-3.36,1.308-7.04,1.96-11.04,1.96h-6V141.594z M297.471,95.834
		h-6.399v18.239h6.56c3.2,0,5.732-0.732,7.6-2.2c1.867-1.466,2.906-3.666,3.12-6.6c0-3.36-0.92-5.772-2.76-7.24
		C303.751,96.568,301.043,95.834,297.471,95.834z"/>
</g>
<g>
	<g>
		<polygon fill="none" stroke="#FFFFFF" stroke-width="6" stroke-miterlimit="10" points="128.285,79.779 196.285,79.779 
			196.285,55.729 184.118,68.779 177.285,68.779 177.285,57.779 149.409,57.779 149.332,68.779 143.605,68.779 128.285,55.729 		"/>
		<rect x="152.285" y="79.779" fill="none" stroke="#FFFFFF" stroke-width="6" stroke-miterlimit="10" width="22" height="47"/>
		<rect x="146.285" y="126.779" fill="none" stroke="#FFFFFF" stroke-width="6" stroke-miterlimit="10" width="33" height="15"/>
		
			<line fill="none" stroke="#FFFFFF" stroke-width="6" stroke-miterlimit="10" x1="172.285" y1="114.779" x2="154.285" y2="114.779"/>
		
			<line fill="none" stroke="#FFFFFF" stroke-width="6" stroke-miterlimit="10" x1="172.285" y1="103.779" x2="154.285" y2="103.779"/>
		<line fill="none" stroke="#FFFFFF" stroke-width="6" stroke-miterlimit="10" x1="172.285" y1="91.779" x2="154.285" y2="91.779"/>
	</g>
	<polygon fill="none" stroke="#FFFFFF" stroke-width="6" stroke-miterlimit="10" points="177.285,57.779 177.285,32.779 
		163.285,40.779 149.285,12.779 149.409,57.779 	"/>
</g>
<line fill="none" stroke="#FFFFFF" stroke-width="6" stroke-miterlimit="10" x1="163.285" y1="40.779" x2="163.285" y2="55.779"/>
<polygon fill="none" stroke="#FFFFFF" stroke-width="4" stroke-miterlimit="10" points="160.596,73.779 158.202,69.279 
	160.596,64.779 165.386,64.779 167.78,69.279 165.386,73.779 "/>
</svg>
