# MagicaVoxel @ Ephtracy

# group
g floor

# material
mtllib floor.mtl
usemtl palette

# normals
vn -1 0 0
vn 1 0 0
vn 0 0 1
vn 0 0 -1
vn 0 -1 0
vn 0 1 0

# texcoords
<<<<<<< HEAD
vt 0.00195312 0.5
vt 0.962891 0.5
=======
vt 0.291016 0.5
vt 0.294922 0.5
>>>>>>> origin/Import-entity-models-to-Unity
vt 0.974609 0.5

# verts
v -8 0 8
v -8 0 -8
v -8 1 7
v -8 1 1
v -8 1 -1
v -8 1 -3
v -8 1 -4
v -8 1 -7
v -8 2 -3
v -8 2 -4
v -8 6 2
v -8 6 1
v -8 7 7
v -8 7 2
v -8 7 -1
v -8 7 -7
v -8 9 7
v -8 9 1
v -8 9 -1
v -8 9 -7
v -8 12 -6
v -8 12 -7
v -8 13 -6
v -8 13 -7
v -8 14 4
v -8 14 3
v -8 15 7
v -8 15 4
v -8 15 3
v -8 15 1
v -8 15 -1
v -8 15 -7
v -8 16 8
v -8 16 -8
v 8 0 8
v 8 0 -8
v 8 1 7
v 8 1 4
v 8 1 3
v 8 1 1
v 8 1 -1
v 8 1 -7
v 8 2 4
v 8 2 3
v 8 6 -1
v 8 6 -2
v 8 7 7
v 8 7 1
v 8 7 -2
v 8 7 -7
v 8 9 7
v 8 9 1
v 8 9 -1
v 8 9 -7
v 8 12 7
v 8 12 6
v 8 13 7
v 8 13 6
v 8 14 -3
v 8 14 -4
v 8 15 7
v 8 15 1
v 8 15 -1
v 8 15 -3
v 8 15 -4
v 8 15 -7
v 8 16 8
v 8 16 -8
v -8 0 8
v -8 16 8
v -7 1 8
v -7 7 8
v -7 9 8
v -7 12 8
v -7 13 8
v -7 15 8
v -6 12 8
v -6 13 8
v -4 1 8
v -4 2 8
v -3 1 8
v -3 2 8
v -1 1 8
v -1 7 8
v -1 9 8
v -1 15 8
v 1 1 8
v 1 6 8
v 1 9 8
v 1 15 8
v 2 6 8
v 2 7 8
v 3 14 8
v 3 15 8
v 4 14 8
v 4 15 8
v 7 1 8
v 7 7 8
v 7 9 8
v 7 15 8
v 8 0 8
v 8 16 8
v -8 0 -8
v -8 16 -8
v -7 1 -8
v -7 7 -8
v -7 9 -8
v -7 15 -8
v -4 14 -8
v -4 15 -8
v -3 14 -8
v -3 15 -8
v -2 6 -8
v -2 7 -8
v -1 1 -8
v -1 6 -8
v -1 9 -8
v -1 15 -8
v 1 1 -8
v 1 7 -8
v 1 9 -8
v 1 15 -8
v 3 1 -8
v 3 2 -8
v 4 1 -8
v 4 2 -8
v 6 12 -8
v 6 13 -8
v 7 1 -8
v 7 7 -8
v 7 9 -8
v 7 12 -8
v 7 13 -8
v 7 15 -8
v 8 0 -8
v 8 16 -8
v -8 0 8
v 8 0 8
v -7 0 7
v -1 0 7
v 1 0 7
v 7 0 7
v -7 0 5
v -6 0 5
v -7 0 4
v -6 0 4
v 1 0 2
v 2 0 2
v -7 0 1
v -1 0 1
v 2 0 1
v 7 0 1
v -7 0 -1
v -1 0 -1
v 1 0 -1
v 7 0 -1
v 6 0 -3
v 7 0 -3
v 6 0 -4
v 7 0 -4
v -5 0 -6
v -4 0 -6
v -7 0 -7
v -5 0 -7
v -4 0 -7
v -1 0 -7
v 1 0 -7
v 7 0 -7
v -8 0 -8
v 8 0 -8
v -8 16 8
v 8 16 8
v -7 16 7
v -1 16 7
v 1 16 7
v 7 16 7
v 6 16 4
v 7 16 4
v 6 16 3
v 7 16 3
v -2 16 2
v -1 16 2
v -7 16 1
v -2 16 1
v 1 16 1
v 7 16 1
v -7 16 -1
v -1 16 -1
v 1 16 -1
v 7 16 -1
v -7 16 -3
v -6 16 -3
v -7 16 -4
v -6 16 -4
v 4 16 -6
v 5 16 -6
v -7 16 -7
v -1 16 -7
v 1 16 -7
v 4 16 -7
v 5 16 -7
v 7 16 -7
v -8 16 -8
v 8 16 -8

# faces
f 3/2/1 2/2/1 1/2/1
f 4/2/1 2/2/1 3/2/1
f 5/2/1 2/2/1 4/2/1
f 6/2/1 2/2/1 5/2/1
f 7/2/1 2/2/1 6/2/1
f 8/2/1 2/2/1 7/2/1
f 9/1/1 6/1/1 5/1/1
f 9/2/1 7/2/1 6/2/1
f 10/1/1 8/1/1 7/1/1
f 10/2/1 7/2/1 9/2/1
f 11/1/1 4/1/1 3/1/1
f 12/2/1 5/2/1 4/2/1
f 12/1/1 4/1/1 11/1/1
f 13/2/1 3/2/1 1/2/1
f 13/1/1 11/1/1 3/1/1
f 14/2/1 12/2/1 11/2/1
f 14/1/1 11/1/1 13/1/1
f 15/2/1 5/2/1 12/2/1
f 15/2/1 12/2/1 14/2/1
f 15/1/1 9/1/1 5/1/1
f 15/1/1 10/1/1 9/1/1
f 16/1/1 8/1/1 10/1/1
f 16/1/1 10/1/1 15/1/1
f 16/2/1 2/2/1 8/2/1
f 17/2/1 14/2/1 13/2/1
f 17/2/1 15/2/1 14/2/1
f 17/2/1 16/2/1 15/2/1
f 17/2/1 13/2/1 1/2/1
f 18/2/1 16/2/1 17/2/1
f 19/2/1 16/2/1 18/2/1
f 20/2/1 2/2/1 16/2/1
f 20/2/1 16/2/1 19/2/1
f 21/1/1 20/1/1 19/1/1
f 22/2/1 2/2/1 20/2/1
f 22/1/1 20/1/1 21/1/1
f 23/1/1 21/1/1 19/1/1
f 23/2/1 22/2/1 21/2/1
f 24/2/1 2/2/1 22/2/1
f 24/2/1 22/2/1 23/2/1
f 25/1/1 18/1/1 17/1/1
f 26/1/1 18/1/1 25/1/1
f 27/2/1 17/2/1 1/2/1
f 27/1/1 25/1/1 17/1/1
f 28/2/1 26/2/1 25/2/1
f 28/1/1 25/1/1 27/1/1
f 29/1/1 18/1/1 26/1/1
f 29/2/1 26/2/1 28/2/1
f 30/2/1 19/2/1 18/2/1
f 30/1/1 18/1/1 29/1/1
f 31/1/1 23/1/1 19/1/1
f 31/2/1 19/2/1 30/2/1
f 31/1/1 24/1/1 23/1/1
f 32/2/1 2/2/1 24/2/1
f 32/1/1 24/1/1 31/1/1
f 33/2/1 29/2/1 28/2/1
f 33/2/1 28/2/1 27/2/1
f 33/2/1 32/2/1 31/2/1
f 33/2/1 27/2/1 1/2/1
f 33/2/1 30/2/1 29/2/1
f 33/2/1 31/2/1 30/2/1
f 34/2/1 2/2/1 32/2/1
f 34/2/1 32/2/1 33/2/1
f 35/2/2 36/2/2 37/2/2
f 37/2/2 36/2/2 38/2/2
f 38/2/2 36/2/2 39/2/2
f 39/2/2 36/2/2 40/2/2
f 40/2/2 36/2/2 41/2/2
f 41/2/2 36/2/2 42/2/2
f 37/1/2 38/1/2 43/1/2
f 38/2/2 39/2/2 43/2/2
f 39/1/2 40/1/2 44/1/2
f 43/2/2 39/2/2 44/2/2
f 41/1/2 42/1/2 45/1/2
f 40/2/2 41/2/2 45/2/2
f 45/1/2 42/1/2 46/1/2
f 35/2/2 37/2/2 47/2/2
f 37/1/2 43/1/2 47/1/2
f 43/1/2 44/1/2 47/1/2
f 44/1/2 40/1/2 48/1/2
f 47/1/2 44/1/2 48/1/2
f 45/2/2 46/2/2 48/2/2
f 40/2/2 45/2/2 48/2/2
f 46/1/2 42/1/2 49/1/2
f 48/2/2 46/2/2 49/2/2
f 42/2/2 36/2/2 50/2/2
f 49/1/2 42/1/2 50/1/2
f 47/2/2 48/2/2 51/2/2
f 48/2/2 49/2/2 51/2/2
f 49/2/2 50/2/2 51/2/2
f 35/2/2 47/2/2 51/2/2
f 51/2/2 50/2/2 52/2/2
f 52/2/2 50/2/2 53/2/2
f 50/2/2 36/2/2 54/2/2
f 53/2/2 50/2/2 54/2/2
f 35/2/2 51/2/2 55/2/2
f 51/1/2 52/1/2 55/1/2
f 55/1/2 52/1/2 56/1/2
f 35/2/2 55/2/2 57/2/2
f 55/2/2 56/2/2 57/2/2
f 56/1/2 52/1/2 58/1/2
f 57/2/2 56/2/2 58/2/2
f 53/1/2 54/1/2 59/1/2
f 59/1/2 54/1/2 60/1/2
f 35/2/2 57/2/2 61/2/2
f 57/1/2 58/1/2 61/1/2
f 52/2/2 53/2/2 62/2/2
f 61/1/2 58/1/2 62/1/2
f 58/1/2 52/1/2 62/1/2
f 53/1/2 59/1/2 63/1/2
f 62/2/2 53/2/2 63/2/2
f 59/2/2 60/2/2 64/2/2
f 63/1/2 59/1/2 64/1/2
f 60/1/2 54/1/2 65/1/2
f 64/2/2 60/2/2 65/2/2
f 54/2/2 36/2/2 66/2/2
f 65/1/2 54/1/2 66/1/2
f 35/2/2 61/2/2 67/2/2
f 64/2/2 65/2/2 67/2/2
f 65/2/2 66/2/2 67/2/2
f 62/2/2 63/2/2 67/2/2
f 63/2/2 64/2/2 67/2/2
f 61/2/2 62/2/2 67/2/2
f 66/2/2 36/2/2 68/2/2
f 67/2/2 66/2/2 68/2/2
f 71/2/3 70/2/3 69/2/3
f 72/2/3 70/2/3 71/2/3
f 73/2/3 70/2/3 72/2/3
f 74/2/3 70/2/3 73/2/3
f 75/2/3 70/2/3 74/2/3
f 76/2/3 70/2/3 75/2/3
f 77/1/3 74/1/3 73/1/3
f 77/2/3 75/2/3 74/2/3
f 78/1/3 76/1/3 75/1/3
f 78/2/3 75/2/3 77/2/3
f 79/2/3 71/2/3 69/2/3
f 79/1/3 72/1/3 71/1/3
f 80/1/3 72/1/3 79/1/3
f 81/2/3 79/2/3 69/2/3
f 81/2/3 80/2/3 79/2/3
f 82/1/3 72/1/3 80/1/3
f 82/2/3 80/2/3 81/2/3
f 83/2/3 81/2/3 69/2/3
f 83/1/3 82/1/3 81/1/3
f 84/2/3 73/2/3 72/2/3
f 84/1/3 82/1/3 83/1/3
f 84/1/3 72/1/3 82/1/3
f 85/1/3 78/1/3 77/1/3
f 85/2/3 73/2/3 84/2/3
f 85/1/3 77/1/3 73/1/3
f 86/1/3 76/1/3 78/1/3
f 86/1/3 78/1/3 85/1/3
f 86/2/3 70/2/3 76/2/3
f 87/2/3 85/2/3 84/2/3
f 87/2/3 84/2/3 83/2/3
f 87/2/3 86/2/3 85/2/3
f 87/2/3 83/2/3 69/2/3
f 88/2/3 86/2/3 87/2/3
f 89/2/3 86/2/3 88/2/3
f 90/2/3 70/2/3 86/2/3
f 90/2/3 86/2/3 89/2/3
f 91/2/3 89/2/3 88/2/3
f 91/1/3 88/1/3 87/1/3
f 92/2/3 89/2/3 91/2/3
f 93/1/3 90/1/3 89/1/3
f 94/2/3 70/2/3 90/2/3
f 94/1/3 90/1/3 93/1/3
f 95/1/3 93/1/3 89/1/3
f 95/2/3 94/2/3 93/2/3
f 96/2/3 70/2/3 94/2/3
f 96/2/3 94/2/3 95/2/3
f 97/2/3 87/2/3 69/2/3
f 97/1/3 91/1/3 87/1/3
f 97/1/3 92/1/3 91/1/3
f 98/2/3 89/2/3 92/2/3
f 98/1/3 92/1/3 97/1/3
f 99/1/3 95/1/3 89/1/3
f 99/2/3 89/2/3 98/2/3
f 99/1/3 96/1/3 95/1/3
f 100/2/3 70/2/3 96/2/3
f 100/1/3 96/1/3 99/1/3
f 101/2/3 98/2/3 97/2/3
f 101/2/3 99/2/3 98/2/3
f 101/2/3 100/2/3 99/2/3
f 101/2/3 97/2/3 69/2/3
f 102/2/3 70/2/3 100/2/3
f 102/2/3 100/2/3 101/2/3
f 103/2/4 104/2/4 105/2/4
f 105/2/4 104/2/4 106/2/4
f 106/2/4 104/2/4 107/2/4
f 107/2/4 104/2/4 108/2/4
f 107/1/4 108/1/4 109/1/4
f 108/2/4 104/2/4 110/2/4
f 109/1/4 108/1/4 110/1/4
f 107/1/4 109/1/4 111/1/4
f 109/2/4 110/2/4 111/2/4
f 110/2/4 104/2/4 112/2/4
f 111/2/4 110/2/4 112/2/4
f 105/1/4 106/1/4 113/1/4
f 106/2/4 107/2/4 114/2/4
f 113/1/4 106/1/4 114/1/4
f 103/2/4 105/2/4 115/2/4
f 105/1/4 113/1/4 115/1/4
f 113/2/4 114/2/4 116/2/4
f 115/1/4 113/1/4 116/1/4
f 114/2/4 107/2/4 117/2/4
f 116/2/4 114/2/4 117/2/4
f 107/1/4 111/1/4 117/1/4
f 111/1/4 112/1/4 117/1/4
f 112/2/4 104/2/4 118/2/4
f 117/1/4 112/1/4 118/1/4
f 115/2/4 116/2/4 119/2/4
f 116/2/4 117/2/4 119/2/4
f 117/2/4 118/2/4 119/2/4
f 103/2/4 115/2/4 119/2/4
f 119/2/4 118/2/4 120/2/4
f 120/2/4 118/2/4 121/2/4
f 118/2/4 104/2/4 122/2/4
f 121/2/4 118/2/4 122/2/4
f 103/2/4 119/2/4 123/2/4
f 119/1/4 120/1/4 123/1/4
f 123/1/4 120/1/4 124/1/4
f 103/2/4 123/2/4 125/2/4
f 123/2/4 124/2/4 125/2/4
f 124/1/4 120/1/4 126/1/4
f 125/2/4 124/2/4 126/2/4
f 121/1/4 122/1/4 127/1/4
f 127/1/4 122/1/4 128/1/4
f 103/2/4 125/2/4 129/2/4
f 125/1/4 126/1/4 129/1/4
f 120/2/4 121/2/4 130/2/4
f 129/1/4 126/1/4 130/1/4
f 126/1/4 120/1/4 130/1/4
f 121/1/4 127/1/4 131/1/4
f 130/2/4 121/2/4 131/2/4
f 127/2/4 128/2/4 132/2/4
f 131/1/4 127/1/4 132/1/4
f 128/1/4 122/1/4 133/1/4
f 132/2/4 128/2/4 133/2/4
f 122/2/4 104/2/4 134/2/4
f 133/1/4 122/1/4 134/1/4
f 103/2/4 129/2/4 135/2/4
f 132/2/4 133/2/4 135/2/4
f 133/2/4 134/2/4 135/2/4
f 130/2/4 131/2/4 135/2/4
f 131/2/4 132/2/4 135/2/4
f 129/2/4 130/2/4 135/2/4
f 134/2/4 104/2/4 136/2/4
f 135/2/4 134/2/4 136/2/4
f 139/2/5 138/2/5 137/2/5
f 140/2/5 138/2/5 139/2/5
f 141/2/5 138/2/5 140/2/5
f 142/2/5 138/2/5 141/2/5
f 143/2/5 139/2/5 137/2/5
f 143/1/5 140/1/5 139/1/5
f 144/1/5 140/1/5 143/1/5
f 145/2/5 143/2/5 137/2/5
f 145/2/5 144/2/5 143/2/5
f 146/1/5 140/1/5 144/1/5
f 146/2/5 144/2/5 145/2/5
f 147/1/5 142/1/5 141/1/5
f 147/2/5 141/2/5 140/2/5
f 148/1/5 142/1/5 147/1/5
f 149/1/5 146/1/5 145/1/5
f 149/2/5 145/2/5 137/2/5
f 150/1/5 140/1/5 146/1/5
f 150/1/5 146/1/5 149/1/5
f 150/2/5 148/2/5 147/2/5
f 150/2/5 147/2/5 140/2/5
f 151/1/5 142/1/5 148/1/5
f 151/2/5 148/2/5 150/2/5
f 152/2/5 138/2/5 142/2/5
f 152/1/5 142/1/5 151/1/5
f 153/2/5 151/2/5 150/2/5
f 153/2/5 149/2/5 137/2/5
f 153/2/5 152/2/5 151/2/5
f 153/2/5 150/2/5 149/2/5
f 154/2/5 152/2/5 153/2/5
f 155/2/5 152/2/5 154/2/5
f 156/2/5 138/2/5 152/2/5
f 156/2/5 152/2/5 155/2/5
f 157/1/5 156/1/5 155/1/5
f 158/2/5 138/2/5 156/2/5
f 158/1/5 156/1/5 157/1/5
f 159/1/5 157/1/5 155/1/5
f 159/2/5 158/2/5 157/2/5
f 160/2/5 138/2/5 158/2/5
f 160/2/5 158/2/5 159/2/5
f 161/1/5 154/1/5 153/1/5
f 162/1/5 154/1/5 161/1/5
f 163/2/5 153/2/5 137/2/5
f 163/1/5 161/1/5 153/1/5
f 164/2/5 162/2/5 161/2/5
f 164/1/5 161/1/5 163/1/5
f 165/1/5 154/1/5 162/1/5
f 165/2/5 162/2/5 164/2/5
f 166/2/5 155/2/5 154/2/5
f 166/1/5 154/1/5 165/1/5
f 167/1/5 159/1/5 155/1/5
f 167/2/5 155/2/5 166/2/5
f 167/1/5 160/1/5 159/1/5
f 168/2/5 138/2/5 160/2/5
f 168/1/5 160/1/5 167/1/5
f 169/2/5 165/2/5 164/2/5
f 169/2/5 164/2/5 163/2/5
f 169/2/5 168/2/5 167/2/5
f 169/2/5 163/2/5 137/2/5
f 169/2/5 166/2/5 165/2/5
f 169/2/5 167/2/5 166/2/5
f 170/2/5 138/2/5 168/2/5
f 170/2/5 168/2/5 169/2/5
f 171/2/6 172/2/6 173/2/6
f 173/2/6 172/2/6 174/2/6
f 174/2/6 172/2/6 175/2/6
f 175/2/6 172/2/6 176/2/6
f 175/1/6 176/1/6 177/1/6
f 176/2/6 172/2/6 178/2/6
f 177/1/6 176/1/6 178/1/6
f 175/1/6 177/1/6 179/1/6
f 177/2/6 178/2/6 179/2/6
f 178/2/6 172/2/6 180/2/6
f 179/2/6 178/2/6 180/2/6
f 173/1/6 174/1/6 181/1/6
f 174/2/6 175/2/6 182/2/6
f 181/1/6 174/1/6 182/1/6
f 171/2/6 173/2/6 183/2/6
f 173/1/6 181/1/6 183/1/6
f 181/2/6 182/2/6 184/2/6
f 183/1/6 181/1/6 184/1/6
f 182/2/6 175/2/6 185/2/6
f 184/2/6 182/2/6 185/2/6
f 175/1/6 179/1/6 185/1/6
f 179/1/6 180/1/6 185/1/6
f 180/2/6 172/2/6 186/2/6
f 185/1/6 180/1/6 186/1/6
f 183/2/6 184/2/6 187/2/6
f 184/2/6 185/2/6 187/2/6
f 185/2/6 186/2/6 187/2/6
f 171/2/6 183/2/6 187/2/6
f 187/2/6 186/2/6 188/2/6
f 188/2/6 186/2/6 189/2/6
f 186/2/6 172/2/6 190/2/6
f 189/2/6 186/2/6 190/2/6
f 171/2/6 187/2/6 191/2/6
f 187/1/6 188/1/6 191/1/6
f 191/1/6 188/1/6 192/1/6
f 171/2/6 191/2/6 193/2/6
f 191/2/6 192/2/6 193/2/6
f 192/1/6 188/1/6 194/1/6
f 193/2/6 192/2/6 194/2/6
f 189/1/6 190/1/6 195/1/6
f 195/1/6 190/1/6 196/1/6
f 171/2/6 193/2/6 197/2/6
f 193/1/6 194/1/6 197/1/6
f 188/2/6 189/2/6 198/2/6
f 197/1/6 194/1/6 198/1/6
f 194/1/6 188/1/6 198/1/6
f 189/1/6 195/1/6 199/1/6
f 198/2/6 189/2/6 199/2/6
f 195/2/6 196/2/6 200/2/6
f 199/1/6 195/1/6 200/1/6
f 196/1/6 190/1/6 201/1/6
f 200/2/6 196/2/6 201/2/6
f 190/2/6 172/2/6 202/2/6
f 201/1/6 190/1/6 202/1/6
f 171/2/6 197/2/6 203/2/6
f 200/2/6 201/2/6 203/2/6
f 201/2/6 202/2/6 203/2/6
f 198/2/6 199/2/6 203/2/6
f 199/2/6 200/2/6 203/2/6
f 197/2/6 198/2/6 203/2/6
f 202/2/6 172/2/6 204/2/6
f 203/2/6 202/2/6 204/2/6
