# MagicaVoxel @ Ephtracy

# group
g goblin

# material
mtllib goblin.mtl
usemtl palette

# normals
vn -1 0 0
vn 1 0 0
vn 0 0 1
vn 0 0 -1
vn 0 -1 0
vn 0 1 0

# texcoords
vt 0.486328 0.5
vt 0.701172 0.5
vt 0.791016 0.5
vt 0.869141 0.5
vt 0.958984 0.5
vt 0.970703 0.5
vt 0.974609 0.5
vt 0.978516 0.5
vt 0.982422 0.5
vt 0.990234 0.5

# verts
v -6 3 1
v -6 3 -0
v -6 4 1
v -6 4 -0
v -5 2 1
v -5 2 -0
v -5 3 1
v -5 3 -0
v -4 9 -0
v -4 9 -1
v -4 10 -0
v -4 10 -1
v -3 3 1
v -3 3 -0
v -3 4 1
v -3 4 -0
v -3 5 1
v -3 5 -0
v -3 6 1
v -3 6 -0
v -3 8 -0
v -3 8 -1
v -3 9 1
v -3 9 -0
v -3 9 -1
v -3 10 1
v -3 10 -0
v -2 0 1
v -2 0 -0
v -2 1 1
v -2 1 -0
v -2 2 2
v -2 2 1
v -2 2 -0
v -2 2 -1
v -2 3 2
v -2 3 1
v -2 3 -0
v -2 3 -1
v -2 4 2
v -2 4 1
v -2 4 -0
v -2 4 -1
v -2 5 1
v -2 5 -0
v -2 6 2
v -2 6 1
v -2 6 -0
v -2 6 -1
v -2 7 2
v -2 7 1
v -2 8 2
v -2 8 1
v -2 8 -0
v -2 8 -1
v -2 8 -2
v -2 9 2
v -2 9 1
v -2 9 -0
v -2 9 -1
v -2 10 2
v -2 10 1
v -2 10 -0
v -2 10 -1
v -2 10 -2
v -2 11 1
v -2 11 -1
v -1 2 1
v -1 2 -0
v -1 3 1
v -1 3 -0
v -1 6 2
v -1 6 1
v -1 7 3
v -1 7 2
v -1 7 1
v -1 7 -1
v -1 7 -2
v -1 8 3
v -1 8 2
v -1 8 -1
v -1 8 -2
v -1 8 -3
v -1 9 3
v -1 9 2
v -1 10 3
v -1 10 2
v -1 10 1
v -1 10 -1
v -1 10 -2
v -1 10 -3
v -1 11 2
v -1 11 1
v -1 11 -1
v -1 11 -2
v -1 12 1
v -1 12 -1
v 0 6 4
v 0 6 3
v 0 7 4
v 0 7 3
v 1 0 1
v 1 0 -0
v 1 1 1
v 1 1 -0
v 1 2 1
v 1 2 -0
v 1 6 1
v 1 6 -0
v 1 7 1
v 1 7 -0
v 2 2 1
v 2 2 -0
v 2 3 1
v 2 3 -0
v 2 4 1
v 2 4 -0
v 2 5 1
v 2 5 -0
v 2 6 1
v 2 6 -0
v 3 9 -0
v 3 9 -1
v 3 10 -0
v 3 10 -1
v 5 3 1
v 5 3 -0
v 5 4 1
v 5 4 -0
v -5 3 1
v -5 3 -0
v -5 4 1
v -5 4 -0
v -3 9 -0
v -3 9 -1
v -3 10 -0
v -3 10 -1
v -2 2 1
v -2 2 -0
v -2 3 1
v -2 3 -0
v -2 4 1
v -2 4 -0
v -2 5 1
v -2 5 -0
v -2 6 1
v -2 6 -0
v -1 0 1
v -1 0 -0
v -1 1 1
v -1 1 -0
v -1 2 1
v -1 2 -0
v -1 6 1
v -1 6 -0
v -1 7 1
v -1 7 -0
v 1 2 1
v 1 2 -0
v 1 3 1
v 1 3 -0
v 1 6 4
v 1 6 3
v 1 6 2
v 1 6 1
v 1 7 4
v 1 7 3
v 1 7 2
v 1 7 1
v 1 7 -1
v 1 7 -2
v 1 8 3
v 1 8 2
v 1 8 -1
v 1 8 -2
v 1 8 -3
v 1 9 3
v 1 9 2
v 1 10 3
v 1 10 2
v 1 10 1
v 1 10 -1
v 1 10 -2
v 1 10 -3
v 1 11 2
v 1 11 1
v 1 11 -1
v 1 11 -2
v 1 12 1
v 1 12 -1
v 2 0 1
v 2 0 -0
v 2 1 1
v 2 1 -0
v 2 2 2
v 2 2 1
v 2 2 -0
v 2 2 -1
v 2 3 2
v 2 3 1
v 2 3 -0
v 2 3 -1
v 2 4 2
v 2 4 1
v 2 4 -0
v 2 4 -1
v 2 5 1
v 2 5 -0
v 2 6 2
v 2 6 1
v 2 6 -0
v 2 6 -1
v 2 7 2
v 2 7 1
v 2 8 2
v 2 8 1
v 2 8 -0
v 2 8 -1
v 2 8 -2
v 2 9 2
v 2 9 1
v 2 9 -0
v 2 9 -1
v 2 10 2
v 2 10 1
v 2 10 -0
v 2 10 -1
v 2 10 -2
v 2 11 1
v 2 11 -1
v 3 3 1
v 3 3 -0
v 3 4 1
v 3 4 -0
v 3 5 1
v 3 5 -0
v 3 6 1
v 3 6 -0
v 3 8 -0
v 3 8 -1
v 3 9 1
v 3 9 -0
v 3 9 -1
v 3 10 1
v 3 10 -0
v 4 9 -0
v 4 9 -1
v 4 10 -0
v 4 10 -1
v 5 2 1
v 5 2 -0
v 5 3 1
v 5 3 -0
v 6 3 1
v 6 3 -0
v 6 4 1
v 6 4 -0
v 0 6 4
v 0 7 4
v 1 6 4
v 1 7 4
v -1 7 3
v -1 8 3
v -1 9 3
v -1 10 3
v 0 7 3
v 1 7 3
v 1 8 3
v 1 9 3
v 1 10 3
v -2 2 2
v -2 3 2
v -2 4 2
v -2 6 2
v -2 7 2
v -2 8 2
v -2 9 2
v -2 10 2
v -1 3 2
v -1 4 2
v -1 5 2
v -1 6 2
v -1 7 2
v -1 8 2
v -1 9 2
v -1 10 2
v -1 11 2
v 1 3 2
v 1 4 2
v 1 5 2
v 1 6 2
v 1 7 2
v 1 8 2
v 1 9 2
v 1 10 2
v 1 11 2
v 2 2 2
v 2 3 2
v 2 4 2
v 2 6 2
v 2 7 2
v 2 8 2
v 2 9 2
v 2 10 2
v -6 3 1
v -6 4 1
v -5 2 1
v -5 3 1
v -5 4 1
v -4 2 1
v -4 3 1
v -3 2 1
v -3 3 1
v -3 4 1
v -3 5 1
v -3 6 1
v -3 9 1
v -3 10 1
v -2 0 1
v -2 1 1
v -2 2 1
v -2 3 1
v -2 4 1
v -2 5 1
v -2 6 1
v -2 7 1
v -2 9 1
v -2 10 1
v -2 11 1
v -1 0 1
v -1 1 1
v -1 2 1
v -1 6 1
v -1 7 1
v -1 10 1
v -1 11 1
v -1 12 1
v 1 0 1
v 1 1 1
v 1 2 1
v 1 6 1
v 1 7 1
v 1 10 1
v 1 11 1
v 1 12 1
v 2 0 1
v 2 1 1
v 2 2 1
v 2 3 1
v 2 4 1
v 2 5 1
v 2 6 1
v 2 7 1
v 2 9 1
v 2 10 1
v 2 11 1
v 3 2 1
v 3 3 1
v 3 4 1
v 3 5 1
v 3 6 1
v 3 9 1
v 3 10 1
v 4 2 1
v 4 3 1
v 5 2 1
v 5 3 1
v 5 4 1
v 6 3 1
v 6 4 1
v -4 9 -0
v -4 10 -0
v -3 8 -0
v -3 9 -0
v -3 10 -0
v -2 2 -0
v -2 3 -0
v -2 4 -0
v -2 5 -0
v -2 6 -0
v -2 8 -0
v -2 9 -0
v -1 2 -0
v -1 3 -0
v -1 4 -0
v -1 5 -0
v -1 6 -0
v -1 7 -0
v 0 4 -0
v 0 5 -0
v 0 6 -0
v 1 2 -0
v 1 3 -0
v 1 6 -0
v 1 7 -0
v 2 2 -0
v 2 3 -0
v 2 4 -0
v 2 5 -0
v 2 6 -0
v 2 8 -0
v 2 9 -0
v 3 8 -0
v 3 9 -0
v 3 10 -0
v 4 9 -0
v 4 10 -0
v 0 6 3
v 0 7 3
v 1 6 3
v 1 7 3
v -2 2 1
v -2 3 1
v -2 4 1
v -2 5 1
v -2 6 1
v -1 2 1
v -1 3 1
v -1 4 1
v -1 5 1
v -1 6 1
v -1 7 1
v 1 2 1
v 1 3 1
v 1 4 1
v 1 5 1
v 1 6 1
v 1 7 1
v 2 2 1
v 2 3 1
v 2 4 1
v 2 5 1
v 2 6 1
v -6 3 -0
v -6 4 -0
v -5 2 -0
v -5 3 -0
v -5 4 -0
v -4 2 -0
v -4 3 -0
v -3 2 -0
v -3 3 -0
v -3 4 -0
v -3 5 -0
v -3 6 -0
v -3 9 -0
v -3 10 -0
v -2 0 -0
v -2 1 -0
v -2 2 -0
v -2 3 -0
v -2 4 -0
v -2 5 -0
v -2 6 -0
v -2 9 -0
v -2 10 -0
v -1 0 -0
v -1 1 -0
v -1 2 -0
v 1 0 -0
v 1 1 -0
v 1 2 -0
v 2 0 -0
v 2 1 -0
v 2 2 -0
v 2 3 -0
v 2 4 -0
v 2 5 -0
v 2 6 -0
v 2 9 -0
v 2 10 -0
v 3 2 -0
v 3 3 -0
v 3 4 -0
v 3 5 -0
v 3 6 -0
v 3 9 -0
v 3 10 -0
v 4 2 -0
v 4 3 -0
v 5 2 -0
v 5 3 -0
v 5 4 -0
v 6 3 -0
v 6 4 -0
v -4 9 -1
v -4 10 -1
v -3 8 -1
v -3 9 -1
v -3 10 -1
v -2 2 -1
v -2 3 -1
v -2 4 -1
v -2 6 -1
v -2 8 -1
v -2 9 -1
v -2 10 -1
v -2 11 -1
v -1 4 -1
v -1 5 -1
v -1 6 -1
v -1 7 -1
v -1 8 -1
v -1 10 -1
v -1 11 -1
v -1 12 -1
v 0 2 -1
v 0 3 -1
v 0 4 -1
v 0 5 -1
v 0 6 -1
v 1 2 -1
v 1 3 -1
v 1 7 -1
v 1 8 -1
v 1 10 -1
v 1 11 -1
v 1 12 -1
v 2 2 -1
v 2 3 -1
v 2 4 -1
v 2 6 -1
v 2 8 -1
v 2 9 -1
v 2 10 -1
v 2 11 -1
v 3 8 -1
v 3 9 -1
v 3 10 -1
v 4 9 -1
v 4 10 -1
v -2 8 -2
v -2 10 -2
v -1 7 -2
v -1 8 -2
v -1 10 -2
v -1 11 -2
v 1 7 -2
v 1 8 -2
v 1 10 -2
v 1 11 -2
v 2 8 -2
v 2 10 -2
v -1 8 -3
v -1 10 -3
v 1 8 -3
v 1 10 -3
v -2 0 1
v -1 0 1
v 1 0 1
v 2 0 1
v -2 0 -0
v -1 0 -0
v 1 0 -0
v 2 0 -0
v -2 2 2
v 2 2 2
v -5 2 1
v -4 2 1
v -3 2 1
v -2 2 1
v -1 2 1
v 1 2 1
v 2 2 1
v 3 2 1
v 4 2 1
v 5 2 1
v -5 2 -0
v -4 2 -0
v -3 2 -0
v -2 2 -0
v -1 2 -0
v 0 2 -0
v 1 2 -0
v 2 2 -0
v 3 2 -0
v 4 2 -0
v 5 2 -0
v -2 2 -1
v 0 2 -1
v 1 2 -1
v 2 2 -1
v -6 3 1
v -5 3 1
v 5 3 1
v 6 3 1
v -6 3 -0
v -5 3 -0
v 5 3 -0
v 6 3 -0
v 0 6 4
v 1 6 4
v 0 6 3
v 1 6 3
v -2 6 1
v -1 6 1
v 1 6 1
v 2 6 1
v -2 6 -0
v -1 6 -0
v 1 6 -0
v 2 6 -0
v -1 7 3
v 0 7 3
v 1 7 3
v -2 7 2
v -1 7 2
v 1 7 2
v 2 7 2
v -2 7 1
v -1 7 1
v 1 7 1
v 2 7 1
v -1 7 -0
v 1 7 -0
v -1 7 -1
v 1 7 -1
v -1 7 -2
v 1 7 -2
v -3 8 -0
v -2 8 -0
v 2 8 -0
v 3 8 -0
v -3 8 -1
v -2 8 -1
v -1 8 -1
v 1 8 -1
v 2 8 -1
v 3 8 -1
v -2 8 -2
v -1 8 -2
v 1 8 -2
v 2 8 -2
v -1 8 -3
v 1 8 -3
v -1 9 3
v 1 9 3
v -1 9 2
v 1 9 2
v -3 9 1
v -2 9 1
v 2 9 1
v 3 9 1
v -4 9 -0
v -3 9 -0
v -2 9 -0
v 2 9 -0
v 3 9 -0
v 4 9 -0
v -4 9 -1
v -3 9 -1
v 3 9 -1
v 4 9 -1
v -2 2 1
v -1 2 1
v 1 2 1
v 2 2 1
v -2 2 -0
v -1 2 -0
v 1 2 -0
v 2 2 -0
v -5 3 1
v -4 3 1
v -3 3 1
v -1 3 1
v 1 3 1
v 3 3 1
v 4 3 1
v 5 3 1
v -5 3 -0
v -4 3 -0
v -3 3 -0
v -1 3 -0
v 1 3 -0
v 3 3 -0
v 4 3 -0
v 5 3 -0
v -6 4 1
v -5 4 1
v 5 4 1
v 6 4 1
v -6 4 -0
v -5 4 -0
v 5 4 -0
v 6 4 -0
v -2 6 2
v -1 6 2
v 1 6 2
v 2 6 2
v -3 6 1
v -2 6 1
v -1 6 1
v 1 6 1
v 2 6 1
v 3 6 1
v -3 6 -0
v -2 6 -0
v 2 6 -0
v 3 6 -0
v 0 7 4
v 1 7 4
v 0 7 3
v 1 7 3
v -1 8 3
v 1 8 3
v -1 8 2
v 1 8 2
v -3 9 -0
v -2 9 -0
v 2 9 -0
v 3 9 -0
v -3 9 -1
v -2 9 -1
v 2 9 -1
v 3 9 -1
v -1 10 3
v 1 10 3
v -2 10 2
v -1 10 2
v 1 10 2
v 2 10 2
v -3 10 1
v -2 10 1
v -1 10 1
v 1 10 1
v 2 10 1
v 3 10 1
v -4 10 -0
v -3 10 -0
v -2 10 -0
v 2 10 -0
v 3 10 -0
v 4 10 -0
v -4 10 -1
v -3 10 -1
v -2 10 -1
v -1 10 -1
v 1 10 -1
v 2 10 -1
v 3 10 -1
v 4 10 -1
v -2 10 -2
v -1 10 -2
v 1 10 -2
v 2 10 -2
v -1 10 -3
v 1 10 -3
v -1 11 2
v 1 11 2
v -2 11 1
v -1 11 1
v 1 11 1
v 2 11 1
v -2 11 -1
v -1 11 -1
v 1 11 -1
v 2 11 -1
v -1 11 -2
v 1 11 -2
v -1 12 1
v 1 12 1
v -1 12 -1
v 1 12 -1

# faces
f 3/7/1 2/7/1 1/7/1
f 4/7/1 2/7/1 3/7/1
f 7/7/1 6/7/1 5/7/1
f 8/7/1 6/7/1 7/7/1
f 11/1/1 10/1/1 9/1/1
f 12/1/1 10/1/1 11/1/1
f 15/1/1 14/1/1 13/1/1
f 16/1/1 14/1/1 15/1/1
f 17/9/1 16/9/1 15/9/1
f 18/9/1 16/9/1 17/9/1
f 19/2/1 18/2/1 17/2/1
f 20/2/1 18/2/1 19/2/1
f 24/1/1 22/1/1 21/1/1
f 25/1/1 22/1/1 24/1/1
f 26/1/1 24/1/1 23/1/1
f 27/1/1 24/1/1 26/1/1
f 30/2/1 29/2/1 28/2/1
f 31/2/1 29/2/1 30/2/1
f 33/1/1 31/1/1 30/1/1
f 34/1/1 31/1/1 33/1/1
f 36/2/1 33/2/1 32/2/1
f 37/2/1 33/2/1 36/2/1
f 38/2/1 35/2/1 34/2/1
f 39/2/1 35/2/1 38/2/1
f 40/9/1 37/9/1 36/9/1
f 41/9/1 37/9/1 40/9/1
f 42/8/1 39/8/1 38/8/1
f 43/8/1 39/8/1 42/8/1
f 44/2/1 41/2/1 40/2/1
f 45/2/1 43/2/1 42/2/1
f 46/2/1 44/2/1 40/2/1
f 47/2/1 44/2/1 46/2/1
f 48/2/1 43/2/1 45/2/1
f 49/2/1 43/2/1 48/2/1
f 51/1/1 48/1/1 47/1/1
f 51/1/1 49/1/1 48/1/1
f 52/1/1 51/1/1 50/1/1
f 53/1/1 49/1/1 51/1/1
f 53/1/1 51/1/1 52/1/1
f 54/1/1 49/1/1 53/1/1
f 55/1/1 49/1/1 54/1/1
f 57/4/1 53/4/1 52/4/1
f 58/1/1 54/1/1 53/1/1
f 58/4/1 53/4/1 57/4/1
f 59/1/1 54/1/1 58/1/1
f 60/1/1 56/1/1 55/1/1
f 61/1/1 58/1/1 57/1/1
f 62/1/1 58/1/1 61/1/1
f 63/1/1 60/1/1 59/1/1
f 64/1/1 56/1/1 60/1/1
f 64/1/1 60/1/1 63/1/1
f 65/1/1 56/1/1 64/1/1
f 66/1/1 63/1/1 62/1/1
f 66/1/1 64/1/1 63/1/1
f 67/1/1 64/1/1 66/1/1
f 70/2/1 69/2/1 68/2/1
f 71/2/1 69/2/1 70/2/1
f 75/5/1 73/5/1 72/5/1
f 76/5/1 73/5/1 75/5/1
f 79/1/1 75/1/1 74/1/1
f 80/1/1 75/1/1 79/1/1
f 81/1/1 78/1/1 77/1/1
f 82/1/1 78/1/1 81/1/1
f 86/1/1 85/1/1 84/1/1
f 87/1/1 85/1/1 86/1/1
f 90/1/1 83/1/1 82/1/1
f 91/1/1 83/1/1 90/1/1
f 92/1/1 88/1/1 87/1/1
f 93/1/1 88/1/1 92/1/1
f 94/1/1 90/1/1 89/1/1
f 95/1/1 90/1/1 94/1/1
f 96/1/1 94/1/1 93/1/1
f 97/1/1 94/1/1 96/1/1
f 100/1/1 99/1/1 98/1/1
f 101/1/1 99/1/1 100/1/1
f 104/2/1 103/2/1 102/2/1
f 105/2/1 103/2/1 104/2/1
f 106/1/1 105/1/1 104/1/1
f 107/1/1 105/1/1 106/1/1
f 110/1/1 109/1/1 108/1/1
f 111/1/1 109/1/1 110/1/1
f 114/1/1 113/1/1 112/1/1
f 115/1/1 113/1/1 114/1/1
f 116/1/1 115/1/1 114/1/1
f 117/1/1 115/1/1 116/1/1
f 118/7/1 117/7/1 116/7/1
f 119/7/1 117/7/1 118/7/1
f 120/2/1 119/2/1 118/2/1
f 121/2/1 119/2/1 120/2/1
f 124/1/1 123/1/1 122/1/1
f 125/1/1 123/1/1 124/1/1
f 128/7/1 127/7/1 126/7/1
f 129/7/1 127/7/1 128/7/1
f 130/7/2 131/7/2 132/7/2
f 132/7/2 131/7/2 133/7/2
f 134/1/2 135/1/2 136/1/2
f 136/1/2 135/1/2 137/1/2
f 138/1/2 139/1/2 140/1/2
f 140/1/2 139/1/2 141/1/2
f 140/1/2 141/1/2 142/1/2
f 142/1/2 141/1/2 143/1/2
f 142/9/2 143/9/2 144/9/2
f 144/9/2 143/9/2 145/9/2
f 144/2/2 145/2/2 146/2/2
f 146/2/2 145/2/2 147/2/2
f 148/2/2 149/2/2 150/2/2
f 150/2/2 149/2/2 151/2/2
f 150/1/2 151/1/2 152/1/2
f 152/1/2 151/1/2 153/1/2
f 154/1/2 155/1/2 156/1/2
f 156/1/2 155/1/2 157/1/2
f 158/2/2 159/2/2 160/2/2
f 160/2/2 159/2/2 161/2/2
f 162/1/2 163/1/2 166/1/2
f 166/1/2 163/1/2 167/1/2
f 164/5/2 165/5/2 168/5/2
f 168/5/2 165/5/2 169/5/2
f 167/1/2 168/1/2 172/1/2
f 172/1/2 168/1/2 173/1/2
f 170/1/2 171/1/2 174/1/2
f 174/1/2 171/1/2 175/1/2
f 177/1/2 178/1/2 179/1/2
f 179/1/2 178/1/2 180/1/2
f 175/1/2 176/1/2 183/1/2
f 183/1/2 176/1/2 184/1/2
f 180/1/2 181/1/2 185/1/2
f 185/1/2 181/1/2 186/1/2
f 182/1/2 183/1/2 187/1/2
f 187/1/2 183/1/2 188/1/2
f 186/1/2 187/1/2 189/1/2
f 189/1/2 187/1/2 190/1/2
f 191/2/2 192/2/2 193/2/2
f 193/2/2 192/2/2 194/2/2
f 193/1/2 194/1/2 196/1/2
f 196/1/2 194/1/2 197/1/2
f 195/2/2 196/2/2 199/2/2
f 199/2/2 196/2/2 200/2/2
f 197/2/2 198/2/2 201/2/2
f 201/2/2 198/2/2 202/2/2
f 199/8/2 200/8/2 203/8/2
f 203/8/2 200/8/2 204/8/2
f 201/8/2 202/8/2 205/8/2
f 205/8/2 202/8/2 206/8/2
f 203/2/2 204/2/2 207/2/2
f 205/2/2 206/2/2 208/2/2
f 203/2/2 207/2/2 209/2/2
f 209/2/2 207/2/2 210/2/2
f 208/2/2 206/2/2 211/2/2
f 211/2/2 206/2/2 212/2/2
f 210/1/2 211/1/2 214/1/2
f 211/1/2 212/1/2 214/1/2
f 213/1/2 214/1/2 215/1/2
f 214/1/2 212/1/2 216/1/2
f 215/1/2 214/1/2 216/1/2
f 216/1/2 212/1/2 217/1/2
f 217/1/2 212/1/2 218/1/2
f 215/4/2 216/4/2 220/4/2
f 216/1/2 217/1/2 221/1/2
f 220/4/2 216/4/2 221/4/2
f 221/1/2 217/1/2 222/1/2
f 218/1/2 219/1/2 223/1/2
f 220/1/2 221/1/2 224/1/2
f 224/1/2 221/1/2 225/1/2
f 222/1/2 223/1/2 226/1/2
f 223/1/2 219/1/2 227/1/2
f 226/1/2 223/1/2 227/1/2
f 227/1/2 219/1/2 228/1/2
f 225/1/2 226/1/2 229/1/2
f 226/1/2 227/1/2 229/1/2
f 229/1/2 227/1/2 230/1/2
f 231/1/2 232/1/2 233/1/2
f 233/1/2 232/1/2 234/1/2
f 233/7/2 234/7/2 235/7/2
f 235/7/2 234/7/2 236/7/2
f 235/2/2 236/2/2 237/2/2
f 237/2/2 236/2/2 238/2/2
f 239/1/2 240/1/2 242/1/2
f 242/1/2 240/1/2 243/1/2
f 241/1/2 242/1/2 244/1/2
f 244/1/2 242/1/2 245/1/2
f 246/1/2 247/1/2 248/1/2
f 248/1/2 247/1/2 249/1/2
f 250/7/2 251/7/2 252/7/2
f 252/7/2 251/7/2 253/7/2
f 254/7/2 255/7/2 256/7/2
f 256/7/2 255/7/2 257/7/2
f 260/1/3 259/1/3 258/1/3
f 261/1/3 259/1/3 260/1/3
f 266/1/3 263/1/3 262/1/3
f 267/1/3 263/1/3 266/1/3
f 268/1/3 263/1/3 267/1/3
f 269/1/3 265/1/3 264/1/3
f 270/1/3 265/1/3 269/1/3
f 279/2/3 272/2/3 271/2/3
f 279/9/3 273/9/3 272/9/3
f 280/2/3 274/2/3 273/2/3
f 280/9/3 273/9/3 279/9/3
f 281/2/3 274/2/3 280/2/3
f 282/2/3 274/2/3 281/2/3
f 283/1/3 276/1/3 275/1/3
f 284/4/3 277/4/3 276/4/3
f 284/1/3 276/1/3 283/1/3
f 285/1/3 278/1/3 277/1/3
f 285/4/3 277/4/3 284/4/3
f 286/1/3 278/1/3 285/1/3
f 288/2/3 279/2/3 271/2/3
f 288/10/3 280/10/3 279/10/3
f 289/2/3 281/2/3 280/2/3
f 289/10/3 280/10/3 288/10/3
f 290/1/3 282/1/3 281/1/3
f 290/2/3 281/2/3 289/2/3
f 291/5/3 283/5/3 282/5/3
f 291/1/3 282/1/3 290/1/3
f 292/5/3 283/5/3 291/5/3
f 293/1/3 285/1/3 284/1/3
f 294/1/3 285/1/3 293/1/3
f 295/1/3 287/1/3 286/1/3
f 296/1/3 287/1/3 295/1/3
f 297/2/3 288/2/3 271/2/3
f 298/8/3 289/8/3 288/8/3
f 298/2/3 288/2/3 297/2/3
f 299/2/3 290/2/3 289/2/3
f 299/8/3 289/8/3 298/8/3
f 299/2/3 291/2/3 290/2/3
f 300/2/3 291/2/3 299/2/3
f 301/1/3 293/1/3 292/1/3
f 302/4/3 294/4/3 293/4/3
f 302/1/3 293/1/3 301/1/3
f 303/1/3 295/1/3 294/1/3
f 303/4/3 294/4/3 302/4/3
f 304/1/3 295/1/3 303/1/3
f 308/7/3 306/7/3 305/7/3
f 309/7/3 306/7/3 308/7/3
f 310/7/3 308/7/3 307/7/3
f 311/7/3 308/7/3 310/7/3
f 312/10/3 311/10/3 310/10/3
f 313/10/3 311/10/3 312/10/3
f 321/1/3 314/1/3 313/1/3
f 321/1/3 313/1/3 312/1/3
f 322/1/3 314/1/3 321/1/3
f 323/9/3 315/9/3 314/9/3
f 323/1/3 314/1/3 322/1/3
f 324/2/3 316/2/3 315/2/3
f 324/9/3 315/9/3 323/9/3
f 325/2/3 316/2/3 324/2/3
f 327/1/3 318/1/3 317/1/3
f 328/1/3 318/1/3 327/1/3
f 330/2/3 320/2/3 319/2/3
f 331/1/3 321/1/3 320/1/3
f 331/2/3 320/2/3 330/2/3
f 332/1/3 321/1/3 331/1/3
f 333/1/3 326/1/3 325/1/3
f 334/1/3 326/1/3 333/1/3
f 335/1/3 329/1/3 328/1/3
f 336/1/3 329/1/3 335/1/3
f 344/1/3 337/1/3 336/1/3
f 345/1/3 337/1/3 344/1/3
f 346/2/3 339/2/3 338/2/3
f 347/1/3 340/1/3 339/1/3
f 347/2/3 339/2/3 346/2/3
f 348/1/3 340/1/3 347/1/3
f 352/1/3 342/1/3 341/1/3
f 353/1/3 342/1/3 352/1/3
f 355/1/3 344/1/3 343/1/3
f 356/1/3 344/1/3 355/1/3
f 357/1/3 349/1/3 348/1/3
f 357/1/3 350/1/3 349/1/3
f 358/1/3 350/1/3 357/1/3
f 359/7/3 351/7/3 350/7/3
f 359/1/3 350/1/3 358/1/3
f 360/2/3 352/2/3 351/2/3
f 360/7/3 351/7/3 359/7/3
f 361/2/3 352/2/3 360/2/3
f 362/1/3 355/1/3 354/1/3
f 363/1/3 355/1/3 362/1/3
f 364/10/3 358/10/3 357/10/3
f 365/10/3 358/10/3 364/10/3
f 366/7/3 365/7/3 364/7/3
f 367/7/3 365/7/3 366/7/3
f 369/7/3 368/7/3 367/7/3
f 370/7/3 368/7/3 369/7/3
f 374/1/3 372/1/3 371/1/3
f 375/1/3 372/1/3 374/1/3
f 381/1/3 374/1/3 373/1/3
f 382/1/3 374/1/3 381/1/3
f 383/2/3 377/2/3 376/2/3
f 384/8/3 378/8/3 377/8/3
f 384/2/3 377/2/3 383/2/3
f 385/2/3 380/2/3 379/2/3
f 385/8/3 378/8/3 384/8/3
f 385/2/3 379/2/3 378/2/3
f 386/2/3 380/2/3 385/2/3
f 387/2/3 380/2/3 386/2/3
f 389/8/3 385/8/3 384/8/3
f 389/6/3 386/6/3 385/6/3
f 390/10/3 387/10/3 386/10/3
f 390/6/3 386/6/3 389/6/3
f 391/1/3 388/1/3 387/1/3
f 391/10/3 387/10/3 390/10/3
f 393/8/3 389/8/3 384/8/3
f 394/2/3 390/2/3 389/2/3
f 394/1/3 388/1/3 391/1/3
f 394/2/3 391/2/3 390/2/3
f 395/1/3 388/1/3 394/1/3
f 396/2/3 393/2/3 392/2/3
f 397/8/3 389/8/3 393/8/3
f 397/2/3 393/2/3 396/2/3
f 398/2/3 394/2/3 389/2/3
f 398/8/3 389/8/3 397/8/3
f 399/2/3 394/2/3 398/2/3
f 400/2/3 394/2/3 399/2/3
f 403/1/3 402/1/3 401/1/3
f 404/1/3 402/1/3 403/1/3
f 406/1/3 405/1/3 404/1/3
f 407/1/3 405/1/3 406/1/3
f 408/1/4 409/1/4 410/1/4
f 410/1/4 409/1/4 411/1/4
f 412/2/4 413/2/4 417/2/4
f 413/9/4 414/9/4 418/9/4
f 417/2/4 413/2/4 418/2/4
f 415/2/4 416/2/4 419/2/4
f 418/9/4 414/9/4 419/9/4
f 414/2/4 415/2/4 419/2/4
f 419/2/4 416/2/4 420/2/4
f 420/2/4 416/2/4 421/2/4
f 418/10/4 419/10/4 424/10/4
f 419/2/4 420/2/4 425/2/4
f 424/10/4 419/10/4 425/10/4
f 420/1/4 421/1/4 426/1/4
f 425/2/4 420/2/4 426/2/4
f 421/5/4 422/5/4 427/5/4
f 426/1/4 421/1/4 427/1/4
f 427/5/4 422/5/4 428/5/4
f 423/2/4 424/2/4 429/2/4
f 424/8/4 425/8/4 430/8/4
f 429/2/4 424/2/4 430/2/4
f 425/2/4 426/2/4 431/2/4
f 430/8/4 425/8/4 431/8/4
f 426/2/4 427/2/4 431/2/4
f 431/2/4 427/2/4 432/2/4
f 432/2/4 427/2/4 433/2/4
f 434/7/4 435/7/4 437/7/4
f 437/7/4 435/7/4 438/7/4
f 436/7/4 437/7/4 439/7/4
f 439/7/4 437/7/4 440/7/4
f 439/10/4 440/10/4 441/10/4
f 441/10/4 440/10/4 442/10/4
f 442/1/4 443/1/4 450/1/4
f 441/1/4 442/1/4 450/1/4
f 450/1/4 443/1/4 451/1/4
f 443/9/4 444/9/4 452/9/4
f 451/1/4 443/1/4 452/1/4
f 444/2/4 445/2/4 453/2/4
f 452/9/4 444/9/4 453/9/4
f 453/2/4 445/2/4 454/2/4
f 446/1/4 447/1/4 455/1/4
f 455/1/4 447/1/4 456/1/4
f 448/2/4 449/2/4 457/2/4
f 449/1/4 450/1/4 458/1/4
f 457/2/4 449/2/4 458/2/4
f 458/1/4 450/1/4 459/1/4
f 460/2/4 461/2/4 463/2/4
f 461/1/4 462/1/4 464/1/4
f 463/2/4 461/2/4 464/2/4
f 464/1/4 462/1/4 465/1/4
f 465/1/4 466/1/4 472/1/4
f 466/1/4 467/1/4 472/1/4
f 472/1/4 467/1/4 473/1/4
f 467/7/4 468/7/4 474/7/4
f 473/1/4 467/1/4 474/1/4
f 468/2/4 469/2/4 475/2/4
f 474/7/4 468/7/4 475/7/4
f 475/2/4 469/2/4 476/2/4
f 470/1/4 471/1/4 477/1/4
f 477/1/4 471/1/4 478/1/4
f 472/10/4 473/10/4 479/10/4
f 479/10/4 473/10/4 480/10/4
f 479/7/4 480/7/4 481/7/4
f 481/7/4 480/7/4 482/7/4
f 482/7/4 483/7/4 484/7/4
f 484/7/4 483/7/4 485/7/4
f 486/1/4 487/1/4 489/1/4
f 489/1/4 487/1/4 490/1/4
f 488/1/4 489/1/4 495/1/4
f 495/1/4 489/1/4 496/1/4
f 493/2/4 494/2/4 499/2/4
f 492/8/4 493/8/4 499/8/4
f 499/2/4 494/2/4 500/2/4
f 494/1/4 495/1/4 501/1/4
f 500/2/4 494/2/4 501/2/4
f 501/1/4 495/1/4 502/1/4
f 502/1/4 495/1/4 503/1/4
f 497/1/4 498/1/4 504/1/4
f 504/1/4 498/1/4 505/1/4
f 491/2/4 492/2/4 507/2/4
f 492/8/4 499/8/4 508/8/4
f 507/2/4 492/2/4 508/2/4
f 499/6/4 500/6/4 509/6/4
f 508/8/4 499/8/4 509/8/4
f 500/10/4 501/10/4 510/10/4
f 509/6/4 500/6/4 510/6/4
f 501/1/4 502/1/4 511/1/4
f 510/10/4 501/10/4 511/10/4
f 507/6/4 508/6/4 512/6/4
f 508/8/4 509/8/4 513/8/4
f 512/6/4 508/6/4 513/6/4
f 511/1/4 502/1/4 514/1/4
f 505/1/4 506/1/4 517/1/4
f 517/1/4 506/1/4 518/1/4
f 512/2/4 513/2/4 519/2/4
f 513/8/4 509/8/4 520/8/4
f 519/2/4 513/2/4 520/2/4
f 509/2/4 510/2/4 521/2/4
f 520/8/4 509/8/4 521/8/4
f 510/2/4 511/2/4 521/2/4
f 514/1/4 515/1/4 522/1/4
f 521/2/4 511/2/4 522/2/4
f 511/1/4 514/1/4 522/1/4
f 522/1/4 515/1/4 523/1/4
f 516/1/4 517/1/4 525/1/4
f 525/1/4 517/1/4 526/1/4
f 523/1/4 524/1/4 527/1/4
f 527/1/4 524/1/4 528/1/4
f 528/1/4 529/1/4 530/1/4
f 530/1/4 529/1/4 531/1/4
f 532/1/4 533/1/4 535/1/4
f 535/1/4 533/1/4 536/1/4
f 534/1/4 535/1/4 538/1/4
f 538/1/4 535/1/4 539/1/4
f 536/1/4 537/1/4 540/1/4
f 540/1/4 537/1/4 541/1/4
f 539/1/4 540/1/4 542/1/4
f 542/1/4 540/1/4 543/1/4
f 544/1/4 545/1/4 546/1/4
f 546/1/4 545/1/4 547/1/4
f 552/2/5 549/2/5 548/2/5
f 553/2/5 549/2/5 552/2/5
f 554/2/5 551/2/5 550/2/5
f 555/2/5 551/2/5 554/2/5
f 561/2/5 557/2/5 556/2/5
f 562/2/5 557/2/5 561/2/5
f 563/2/5 557/2/5 562/2/5
f 564/2/5 557/2/5 563/2/5
f 568/7/5 559/7/5 558/7/5
f 569/10/5 560/10/5 559/10/5
f 569/7/5 559/7/5 568/7/5
f 570/1/5 561/1/5 560/1/5
f 570/10/5 560/10/5 569/10/5
f 571/1/5 561/1/5 570/1/5
f 572/2/5 563/2/5 562/2/5
f 573/2/5 563/2/5 572/2/5
f 574/2/5 563/2/5 573/2/5
f 575/1/5 565/1/5 564/1/5
f 576/10/5 566/10/5 565/10/5
f 576/1/5 565/1/5 575/1/5
f 577/7/5 567/7/5 566/7/5
f 577/10/5 566/10/5 576/10/5
f 578/7/5 567/7/5 577/7/5
f 579/2/5 573/2/5 572/2/5
f 579/2/5 572/2/5 571/2/5
f 580/6/5 574/6/5 573/6/5
f 580/2/5 573/2/5 579/2/5
f 581/2/5 575/2/5 574/2/5
f 581/6/5 574/6/5 580/6/5
f 582/2/5 575/2/5 581/2/5
f 587/7/5 584/7/5 583/7/5
f 588/7/5 584/7/5 587/7/5
f 589/7/5 586/7/5 585/7/5
f 590/7/5 586/7/5 589/7/5
f 593/1/5 592/1/5 591/1/5
f 594/1/5 592/1/5 593/1/5
f 599/1/5 596/1/5 595/1/5
f 600/1/5 596/1/5 599/1/5
f 601/1/5 598/1/5 597/1/5
f 602/1/5 598/1/5 601/1/5
f 607/1/5 604/1/5 603/1/5
f 607/1/5 605/1/5 604/1/5
f 608/1/5 605/1/5 607/1/5
f 610/1/5 607/1/5 606/1/5
f 611/1/5 607/1/5 610/1/5
f 612/1/5 609/1/5 608/1/5
f 613/1/5 609/1/5 612/1/5
f 614/1/5 612/1/5 611/1/5
f 615/1/5 612/1/5 614/1/5
f 618/1/5 617/1/5 616/1/5
f 619/1/5 617/1/5 618/1/5
f 624/1/5 621/1/5 620/1/5
f 625/1/5 621/1/5 624/1/5
f 628/1/5 623/1/5 622/1/5
f 629/1/5 623/1/5 628/1/5
f 630/1/5 626/1/5 625/1/5
f 631/1/5 626/1/5 630/1/5
f 632/1/5 628/1/5 627/1/5
f 633/1/5 628/1/5 632/1/5
f 634/1/5 632/1/5 631/1/5
f 635/1/5 632/1/5 634/1/5
f 638/1/5 637/1/5 636/1/5
f 639/1/5 637/1/5 638/1/5
f 645/1/5 641/1/5 640/1/5
f 646/1/5 641/1/5 645/1/5
f 647/1/5 643/1/5 642/1/5
f 648/1/5 643/1/5 647/1/5
f 650/1/5 645/1/5 644/1/5
f 651/1/5 645/1/5 650/1/5
f 652/1/5 649/1/5 648/1/5
f 653/1/5 649/1/5 652/1/5
f 654/1/6 655/1/6 658/1/6
f 658/1/6 655/1/6 659/1/6
f 656/1/6 657/1/6 660/1/6
f 660/1/6 657/1/6 661/1/6
f 662/7/6 663/7/6 670/7/6
f 663/10/6 664/10/6 671/10/6
f 670/7/6 663/7/6 671/7/6
f 671/10/6 664/10/6 672/10/6
f 665/2/6 666/2/6 673/2/6
f 673/2/6 666/2/6 674/2/6
f 667/10/6 668/10/6 675/10/6
f 668/7/6 669/7/6 676/7/6
f 675/10/6 668/10/6 676/10/6
f 676/7/6 669/7/6 677/7/6
f 678/7/6 679/7/6 682/7/6
f 682/7/6 679/7/6 683/7/6
f 680/7/6 681/7/6 684/7/6
f 684/7/6 681/7/6 685/7/6
f 686/2/6 687/2/6 691/2/6
f 691/2/6 687/2/6 692/2/6
f 688/2/6 689/2/6 693/2/6
f 693/2/6 689/2/6 694/2/6
f 690/2/6 691/2/6 696/2/6
f 696/2/6 691/2/6 697/2/6
f 694/2/6 695/2/6 698/2/6
f 698/2/6 695/2/6 699/2/6
f 700/1/6 701/1/6 702/1/6
f 702/1/6 701/1/6 703/1/6
f 704/1/6 705/1/6 706/1/6
f 706/1/6 705/1/6 707/1/6
f 708/1/6 709/1/6 712/1/6
f 712/1/6 709/1/6 713/1/6
f 710/1/6 711/1/6 714/1/6
f 714/1/6 711/1/6 715/1/6
f 716/1/6 717/1/6 719/1/6
f 719/1/6 717/1/6 720/1/6
f 718/1/6 719/1/6 723/1/6
f 723/1/6 719/1/6 724/1/6
f 720/1/6 721/1/6 725/1/6
f 725/1/6 721/1/6 726/1/6
f 722/1/6 723/1/6 729/1/6
f 729/1/6 723/1/6 730/1/6
f 726/1/6 727/1/6 731/1/6
f 731/1/6 727/1/6 732/1/6
f 728/1/6 729/1/6 734/1/6
f 734/1/6 729/1/6 735/1/6
f 732/1/6 733/1/6 740/1/6
f 740/1/6 733/1/6 741/1/6
f 736/1/6 737/1/6 742/1/6
f 742/1/6 737/1/6 743/1/6
f 738/1/6 739/1/6 744/1/6
f 744/1/6 739/1/6 745/1/6
f 743/1/6 744/1/6 746/1/6
f 746/1/6 744/1/6 747/1/6
f 748/1/6 749/1/6 751/1/6
f 751/1/6 749/1/6 752/1/6
f 750/1/6 751/1/6 754/1/6
f 754/1/6 751/1/6 755/1/6
f 752/1/6 753/1/6 756/1/6
f 756/1/6 753/1/6 757/1/6
f 755/1/6 756/1/6 758/1/6
f 758/1/6 756/1/6 759/1/6
f 760/1/6 761/1/6 762/1/6
f 762/1/6 761/1/6 763/1/6
